<?xml version="1.0" encoding="utf-8"?>
<!-- Generator: Adobe Illustrator 23.1.1, SVG Export Plug-In . SVG Version: 6.00 Build 0)  -->
<svg version="1.1" id="Layer_1" xmlns="http://www.w3.org/2000/svg" xmlns:xlink="http://www.w3.org/1999/xlink" x="0px" y="0px"
	 viewBox="0 0 437.1 328.1" style="enable-background:new 0 0 437.1 328.1;" xml:space="preserve">
<g>
	<path d="M216.6,292.7c-11.3,12.5-23.4,23.1-38.3,30.3c-14.2-4.8-27.1-11.6-38.7-20.6c-11.5-8.9-20.6-20.2-29.6-32.1
		c-1.4,1.4-2.5,2.1-3.2,3.2c-7.7,12.1-17.6,22.1-29.1,30.6c-10.6,7.8-22.3,13.8-35.3,18c-14-7.9-26.1-18.3-37.4-31.4
		c32.2-2.3,56.9-16,73.5-43.2c10.2-16.8,14.2-35.4,11.6-54.7c-5.3-39.1-34.5-72.7-83.6-77.5c1.6-3.7,4.5-6.2,7-8.8
		c7.3-7.1,15.2-13.4,23.7-19c3.6-2.4,7-2.8,11.2-1.2c23.6,9.3,42.7,24.1,57.1,45c1.3,1.9,2.7,3.6,4.6,6c1.8-2.1,3.2-3.6,4.5-5.3
		c8.9-12.1,19.4-22.6,31.9-31.2c10.1-6.9,20.9-12,32.6-16.1c14.9,7.8,26.8,19,37.7,31.1c3.1-0.2,4.4-2.3,5.9-4
		c9.8-10.5,21.1-19.3,33.6-27c14.1,4.4,27.2,11.1,39,20.3c11.6,9,21.2,20,29.5,32.9c1.9-2.3,3.4-3.8,4.6-5.5
		c11.8-16.1,26.1-29.2,44-38.4c5.5-2.8,11.2-5.1,16.7-7.7c2.8-1.3,5.1-0.5,7.5,0.9c8.3,4.7,15.7,10.5,22.7,16.9
		c2.7,2.5,5.3,5.1,7.8,7.8c1.1,1.2,1.9,2.6,3.3,4.4c-5.7,0.7-10.6,1.3-15.4,2.1c-15.7,2.6-29.2,9.7-41.2,20
		c-7.7,6.6-14,14.3-18.7,23.1c-6.5,12.1-10.8,25-11,39c-0.2,10.9,1,21.6,4.7,31.9c4.4,12.4,11.2,23.3,20.5,32.7
		c13.8,14,30.6,22.1,49.8,25.4c3.7,0.6,7.6,0.9,12,1.3c-2.7,3.2-4.8,6.2-7.4,8.6c-8.3,7.7-16.9,15-26.9,20.5c-2.7,1.5-5,1.6-8,0.5
		c-18.7-7.3-35.4-17.5-49.2-32.2c-4.1-4.4-7.6-9.2-11.4-13.9c-1.2-1.5-2.6-2.9-4.4-4.8c-16.6,26-39.3,43-67.5,52.2
		c-12.2-5.9-30.8-21.6-37.5-31.1c19.8-1.2,37.8-6.8,53.2-19.1c1.9-1.5,4.4-2.6,4.5-5.7c-1.7-1.9-4-1.3-6-1.3
		c-20.8-0.1-41.7-0.1-62.5-0.1c-15.3,0-30.7,0-46,0c-1.8,0-3.6,0.2-6.3,0.3c1.4,1.7,2,2.9,2.9,3.7c14.9,12.2,31.6,20.2,51.1,21.4
		c1,0.1,2,0.2,2.9,0.5C214.5,291.8,215.3,292.2,216.6,292.7z M303.7,192c1.4-13.8-10-38.8-28.6-54.7c-17.2-14.7-44-22.6-55.7-19.5
		c0.3,0.6,0.5,1.3,0.9,1.7c26.8,23.7,53.5,47.3,80.3,70.9C301.4,191,302.4,191.3,303.7,192z M131,192.4c3.2-2.4,5.5-3.9,7.5-5.7
		c11.1-9.6,22.1-19.2,33.1-28.8c13.7-12,27.5-24.1,41.1-36.2c1.2-1,2.8-2,2.2-4c-13.3-2.7-42.1,7.1-59.4,24.4
		c-12.9,12.9-20.5,28.4-25.1,45.8C130.3,188.8,130.8,190,131,192.4z M130.7,194.1c-5.5,23.9,10.2,61.1,24.2,70
		c0.4-1.3,1-2.4,1.2-3.6c1.1-8.4,0.4-63.3-0.7-66.5C151.1,192.5,135.2,192.6,130.7,194.1z M280.2,194c-1.2,4.7-1.3,66.9-0.2,70.6
		c16.2-8.8,31.4-50.3,24.6-70.6C296.5,194,288.4,194,280.2,194z"/>
	<path d="M64.1,50.2C63.9,24.4,85.4,6.3,107.9,5.1c29.1-1.6,49.2,21.6,49.4,46.2c0.2,25.4-20.7,46.8-47,46.6
		C85.7,97.7,62.6,77.3,64.1,50.2z"/>
	<path d="M326.5,98.9c-25.9,0.1-46.8-20.3-46.9-45.2c-0.1-28.4,21.7-47.6,48-47.3c25,0.3,45.9,20.3,45.2,47.9
		C372.2,80.5,350,99.5,326.5,98.9z"/>
</g>
</svg>
