<?xml version="1.0" encoding="utf-8"?>
<!-- Generator: Adobe Illustrator 23.1.1, SVG Export Plug-In . SVG Version: 6.00 Build 0)  -->
<svg version="1.1" id="Layer_1" xmlns="http://www.w3.org/2000/svg" xmlns:xlink="http://www.w3.org/1999/xlink" x="0px" y="0px"
	 viewBox="0 0 621 270" fill="#000000" style="enable-background:new 0 0 621 270;" xml:space="preserve">
<g>
	<g>
		<path d="M173.6,171.8v-44.3c0-2.5-1.1-4.9-2.9-6.5l-50.2-44.7c-3.3-2.9-8.3-3-11.6,0l-50.1,44.2c-1.9,1.7-3,4.1-3,6.6v54.5
			c0,4.8,3.9,8.8,8.8,8.8h68.6c4.8,0,8.8-3.9,8.8-8.8v-47.3c0-4.8-3.9-8.8-8.8-8.8H99.5c-4.8,0-8.8,3.9-8.8,8.8v11.5
			c-3.8,1.6-6.4,5.3-6.4,9.7c0,5.8,4.7,10.5,10.5,10.5s10.5-4.7,10.5-10.5c0-4.4-2.7-8.2-6.6-9.7v-11.5c0-0.4,0.3-0.7,0.7-0.7H133
			c0.4,0,0.7,0.3,0.7,0.7v47.3c0,0.4-0.3,0.7-0.7,0.7H64.5c-0.4,0-0.7-0.3-0.7-0.7V127c0-0.2,0.1-0.4,0.2-0.5l50.1-44.2
			c0.3-0.2,0.7-0.2,1,0l50.2,44.7c0.2,0.1,0.2,0.3,0.2,0.5v44.3c-3.8,1.6-6.5,5.3-6.5,9.7c0,5.8,4.7,10.5,10.5,10.5
			s10.5-4.7,10.5-10.5C180.1,177.1,177.4,173.3,173.6,171.8 M94.8,157.8c-1.4,0-2.4-1.1-2.4-2.4c0-1.4,1.1-2.5,2.4-2.5
			c1.4,0,2.4,1.1,2.4,2.5C97.2,156.7,96.1,157.8,94.8,157.8 M169.6,183.9c-1.4,0-2.4-1.1-2.4-2.4c0-1.3,1.1-2.4,2.4-2.4
			c1.4,0,2.4,1.1,2.4,2.4C172,182.8,170.9,183.9,169.6,183.9"/>
	</g>
	<g>
		<path d="M224.5,132.2c2.1-7.3,8.1-13,17.9-13c6.3,0,14.3,3.2,16.9,13H224.5z M243,99.8c-24.7,0-43,17.9-43,42.2
			c0,24.7,17.9,42.5,43,42.5c19.3,0,35.4-10.6,41.5-25.9c0.5-1.3-0.5-2.8-1.9-2.8h-21.5c-0.7,0-1.4,0.3-1.8,0.9
			c-2.4,3.9-8.5,6.7-15.1,6.7c-13.3,0-19.6-7.3-20.5-15.6h60.5c1.1,0,2-0.9,2-2C286.2,115.2,266,99.8,243,99.8"/>
	</g>
	<g>
		<path d="M343.5,119.7c7.6,0,14.4,3.7,17.6,9.7c0.6,1.2,1.8,1.9,3.1,1.9H380c1.2,0,2.2-0.5,2.9-1.5c0.7-0.9,0.9-2.2,0.5-3.2
			c-5.5-16.1-21.8-27.4-39.8-27.4c-25,0-43.9,18.6-43.9,43.2s18.9,43.2,43.9,43.2c18,0,34.4-11.3,39.8-27.4c0.4-1.1,0.2-2.3-0.5-3.2
			s-1.7-1.5-2.9-1.5h-15.7c-1.3,0-2.5,0.7-3.1,1.9c-3.3,6-10,9.7-17.6,9.7c-13.4,0-22.7-9.3-22.7-22.7S330.2,119.7,343.5,119.7"/>
	</g>
	<g>
		<path d="M465,100.5h-14c-2,0-3.6,1.6-3.6,3.6v28H418v-28c0-2-1.6-3.6-3.6-3.6h-14c-2,0-3.5,1.6-3.5,3.6v76.6c0,2,1.6,3.6,3.5,3.6
			h14c2,0,3.6-1.6,3.6-3.6v-28.4h29.4v28.4c0,2,1.6,3.6,3.6,3.6h14c2,0,3.6-1.6,3.6-3.6v-76.6C468.5,102.1,466.9,100.5,465,100.5"/>
	</g>
	<g>
		<path d="M542.6,155.9c-4.2,5.8-10.6,9.2-17.5,9.2c-12.1,0-22-10.2-22-22.7c0-6.6,2.8-12.8,7.7-17.2c4-3.6,9-5.5,14.3-5.5
			c0.9,0,1.7,0.1,2.6,0.2c8.3,1,15.3,6.8,18,14.9l0,0C548.1,142.1,547,149.8,542.6,155.9 M568.2,139.6
			c-1.4-21.7-19.5-39.5-41.3-40.4c-11.9-0.5-23.2,3.8-31.8,12c-8.6,8.2-13.3,19.3-13.3,31.2c0,23.8,19.4,43.2,43.2,43.2
			c11.9,0,23.3-5,31.5-13.7C564.8,163.1,568.9,151.6,568.2,139.6"/>
	</g>
</g>
</svg>
