<svg width="87" height="46" viewBox="0 0 87 46" fill="#000000" xmlns="http://www.w3.org/2000/svg">
<path d="M0 0.421875C3.29498 0.421875 6.19457 0.421875 9.35776 0.421875C9.35776 15.6324 9.35776 30.7106 9.35776 45.9211C6.19457 45.9211 3.16319 45.9211 0 45.9211C0 30.7106 0 15.5001 0 0.421875Z"/>
<path d="M30.9728 0.421631C34.136 0.421631 37.0356 0.421631 40.1987 0.421631C40.1987 15.6321 40.1987 30.5781 40.1987 45.9208C37.1674 45.9208 34.2678 45.9208 30.9728 45.9208C30.9728 30.8426 30.9728 15.7644 30.9728 0.421631Z"/>
<path d="M24.7781 31.2392C21.6149 31.2392 18.7153 31.2392 15.5521 31.2392C15.5521 20.9225 15.5521 10.8704 15.5521 0.553711C18.5835 0.553711 21.6149 0.553711 24.7781 0.553711C24.7781 10.6059 24.7781 20.658 24.7781 31.2392Z"/>
<path d="M62.2096 15.2351C65.3728 15.2351 68.2724 15.2351 71.4356 15.2351C71.4356 25.5518 71.4356 35.6039 71.4356 45.9206C68.2724 45.9206 65.3728 45.9206 62.2096 45.9206C62.2096 35.7362 62.2096 25.6841 62.2096 15.2351Z"/>
<path d="M46.7887 45.7885C46.7887 35.4718 46.7887 25.6842 46.7887 15.4998C49.6883 15.4998 52.4561 15.4998 55.3557 15.4998C55.3557 25.5519 55.3557 35.6041 55.3557 45.7885C52.4561 45.7885 49.8201 45.7885 46.7887 45.7885Z"/>
<path d="M86.9879 9.68C79.3435 9.68 71.9628 9.68 64.582 9.68C63.923 9.68 63.1322 9.54774 62.2096 9.54774C62.2096 6.63791 62.2096 3.72807 62.2096 0.553711C70.513 0.553711 78.5527 0.553711 86.9879 0.553711C86.9879 3.46354 86.9879 6.37337 86.9879 9.68Z"/>
<path d="M46 0C49.295 0 52.1946 0 55.226 0C55.226 3.0421 55.226 5.81967 55.226 8.86176C52.1946 8.86176 49.1632 8.86176 46 8.86176C46 5.95193 46 3.0421 46 0Z"/>
</svg>
