<?xml version="1.0" encoding="utf-8"?>
<!-- Generator: Adobe Illustrator 23.1.1, SVG Export Plug-In . SVG Version: 6.00 Build 0)  -->
<svg version="1.1" id="Layer_1" xmlns="http://www.w3.org/2000/svg" xmlns:xlink="http://www.w3.org/1999/xlink" x="0px" y="0px"
	 viewBox="0 0 150 150" fill="#000000" style="enable-background:new 0 0 150 150;" xml:space="preserve">
<path class="st0" d="M49.5,40.2l23.9-20.4c0.9-0.8,2.4-0.8,3.3,0l0,0l0,0l23.6,20.4l0,0l0.7,0.6c0.5,0.4,0.8,1,0.8,1.6h0v30.3
	c0,1.2-1,2.1-2.3,2.1H50.6c-1.3,0-2.3-0.9-2.3-2.1V42.2c0-0.6,0.3-1.2,0.8-1.6L49.5,40.2L49.5,40.2z M75,24.1L52.9,43.1v27.5h44.2
	V43.3c0,0-0.1-0.1-0.1-0.1L75,24.1L75,24.1z"/>
<path class="st0" d="M68.6,52.1h12.8c1.3,0,2.3,0.9,2.3,2.1v18.4c0,1.2-1,2.1-2.3,2.1H68.6c-1.3,0-2.3-0.9-2.3-2.1V54.2
	C66.2,53.1,67.3,52.1,68.6,52.1z M79.1,56.3h-8.2v14.3h8.2V56.3z"/>
<path class="st0" d="M42.5,40.8c-0.9,0.8-2.4,0.8-3.3-0.1c-0.9-0.8-0.9-2.2,0.1-2.9L73.4,8.9c0.9-0.8,2.3-0.8,3.2,0l34.1,28.9
	c0.9,0.8,1,2.1,0.1,2.9s-2.4,0.9-3.3,0.1L75,13.3L42.5,40.8z"/>
<path class="st0" d="M11,107.1l23.9-20.4c0.9-0.8,2.4-0.8,3.3,0l0,0l0,0l23.6,20.4l0,0l0.7,0.6c0.5,0.4,0.8,1,0.8,1.6h0v30.3
	c0,1.2-1,2.1-2.3,2.1H12c-1.3,0-2.3-0.9-2.3-2.1v-30.4c0-0.6,0.3-1.2,0.8-1.6L11,107.1L11,107.1z M36.5,91.1L14.4,110v27.5h44.2
	v-27.3c0,0-0.1-0.1-0.1-0.1L36.5,91.1L36.5,91.1z"/>
<path class="st0" d="M30.1,119h12.8c1.3,0,2.3,0.9,2.3,2.1v18.4c0,1.2-1,2.1-2.3,2.1H30.1c-1.3,0-2.3-0.9-2.3-2.1v-18.4
	C27.7,120,28.8,119,30.1,119z M40.6,123.2h-8.2v14.3h8.2V123.2z"/>
<path class="st0" d="M3.9,107.7c-0.9,0.8-2.4,0.8-3.3-0.1c-0.9-0.8-0.9-2.2,0.1-2.9l34.1-28.9c0.9-0.8,2.3-0.8,3.2,0l34.1,28.9
	c0.9,0.8,1,2.1,0.1,2.9c-0.9,0.8-2.4,0.9-3.3,0.1L36.5,80.2L3.9,107.7z"/>
<path class="st0" d="M88,107.1l23.9-20.4c0.9-0.8,2.4-0.8,3.3,0v0l0,0l23.6,20.4l0,0l0.7,0.6c0.5,0.4,0.8,1,0.8,1.6h0v30.3
	c0,1.2-1,2.1-2.3,2.1H89.1c-1.3,0-2.3-0.9-2.3-2.1v-30.4c0-0.6,0.3-1.2,0.8-1.6L88,107.1L88,107.1z M113.5,91.1L91.4,110v27.5h44.2
	v-27.3c0,0-0.1-0.1-0.1-0.1L113.5,91.1L113.5,91.1z"/>
<path class="st0" d="M107.1,119h12.8c1.3,0,2.3,0.9,2.3,2.1v18.4c0,1.2-1,2.1-2.3,2.1h-12.8c-1.3,0-2.3-0.9-2.3-2.1v-18.4
	C104.8,120,105.8,119,107.1,119z M117.6,123.2h-8.2v14.3h8.2V123.2z"/>
<path class="st0" d="M81,107.7c-0.9,0.8-2.4,0.8-3.3-0.1c-0.9-0.8-0.9-2.2,0.1-2.9l34.1-28.9c0.9-0.8,2.3-0.8,3.2,0l34.1,28.9
	c0.9,0.8,1,2.1,0.1,2.9c-0.9,0.8-2.4,0.9-3.3,0.1l-32.5-27.5L81,107.7L81,107.7z"/>
</svg>
