<?xml version="1.0" encoding="utf-8"?>
<!-- Generator: Adobe Illustrator 23.1.1, SVG Export Plug-In . SVG Version: 6.00 Build 0)  -->
<svg version="1.1" id="Layer_1" xmlns="http://www.w3.org/2000/svg" xmlns:xlink="http://www.w3.org/1999/xlink" x="0px" y="0px"
	 viewBox="0 0 219 270" style="enable-background:new 0 0 219 270;" xml:space="preserve">
<g>
	<g>
		<path d="M165.2,173.8v-44.3c0-2.5-1.1-4.9-2.9-6.5l-50.2-44.7c-3.3-2.9-8.3-3-11.6,0l-50.1,44.2c-1.9,1.7-3,4.1-3,6.6v54.5
			c0,4.8,3.9,8.8,8.8,8.8h68.6c4.8,0,8.8-3.9,8.8-8.8v-47.3c0-4.8-3.9-8.8-8.8-8.8H91.1c-4.8,0-8.8,3.9-8.8,8.8v11.5
			c-3.8,1.6-6.4,5.3-6.4,9.7c0,5.8,4.7,10.5,10.5,10.5s10.5-4.7,10.5-10.5c0-4.4-2.7-8.2-6.6-9.7v-11.5c0-0.4,0.3-0.7,0.7-0.7h33.6
			c0.4,0,0.7,0.3,0.7,0.7v47.3c0,0.4-0.3,0.7-0.7,0.7H56.1c-0.4,0-0.7-0.3-0.7-0.7V129c0-0.2,0.1-0.4,0.2-0.5l50.1-44.2
			c0.3-0.2,0.7-0.2,1,0l50.2,44.7c0.2,0.1,0.2,0.3,0.2,0.5v44.3c-3.8,1.6-6.5,5.3-6.5,9.7c0,5.8,4.7,10.5,10.5,10.5
			s10.5-4.7,10.5-10.5C171.7,179.1,169,175.3,165.2,173.8 M86.4,159.8c-1.4,0-2.4-1.1-2.4-2.4c0-1.4,1.1-2.5,2.4-2.5
			c1.4,0,2.4,1.1,2.4,2.5C88.8,158.7,87.7,159.8,86.4,159.8 M161.2,185.9c-1.4,0-2.4-1.1-2.4-2.4c0-1.3,1.1-2.4,2.4-2.4
			c1.4,0,2.4,1.1,2.4,2.4C163.6,184.8,162.5,185.9,161.2,185.9"/>
	</g>
</g>
</svg>
