<?xml version="1.0" encoding="utf-8"?>
<!-- Generator: Adobe Illustrator 23.1.1, SVG Export Plug-In . SVG Version: 6.00 Build 0)  -->
<svg version="1.1" id="Layer_1" xmlns="http://www.w3.org/2000/svg" xmlns:xlink="http://www.w3.org/1999/xlink" x="0px" y="0px"
	 viewBox="0 0 150 150" fill="#000000" style="enable-background:new 0 0 150 150;" xml:space="preserve">
<path class="st0" d="M2.1,147.9h145.8c1,0,1.9-0.8,1.9-1.8v-9.2c0-1-0.8-1.8-1.9-1.8h-3.6v-7.7c0-1-0.8-1.8-1.9-1.8h-2.1V25.8h2.8
	c1,0,1.9-0.8,1.9-1.8v-9.1c0-1-0.8-1.8-1.9-1.8h-8.4V3.9c0-1-0.8-1.8-1.9-1.8h-14.3c-1,0-1.9,0.8-1.9,1.8V13h-5.4V3.9
	c0-1-0.8-1.8-1.9-1.8H95.1c-1,0-1.9,0.8-1.9,1.8V13H49c-1,0-1.9,0.8-1.9,1.8V24c0,1,0.8,1.8,1.9,1.8h2.8v20.3
	c-2.9-2.2-6.7-3.6-10.8-3.6c-9.2,0-16.7,6.8-16.7,15.2c0,1.8,0.4,3.6,1.1,5.3c-0.6,0.7-1.1,1.5-1.6,2.2c-1.7-0.7-3.7-1.2-5.6-1.2
	C10.9,64.1,5,69.5,5,76.2c0,1.4,0.3,2.7,0.7,4c-1.9,2.4-2.9,5.3-2.9,8.2c0,1.7,0.3,3.3,1,4.9c-2.2,2.7-3.4,6.1-3.4,9.5
	c0,8.4,7,15.3,15.9,16.1l0,16.2H2.1c-1,0-1.9,0.8-1.9,1.8v9.2C0.2,147.1,1.1,147.9,2.1,147.9z M140.5,135.1h-89v-5.9h89V135.1z
	 M43,135.1l-0.1-22c3.2-0.2,6.2-1.1,8.9-2.4v14.9h-2.1c-1,0-1.9,0.8-1.9,1.8v7.7L43,135.1L43,135.1z M114,125.6h-16V92.5h16V125.6z
	 M94.2,125.6h-16V92.5h16V125.6z M120.4,5.7H131V13h-10.6V5.7z M97,5.7h10.6V13H97V5.7z M50.9,16.6h90.3v5.5H50.9V16.6z M136.6,25.8
	v99.8h-18.9V90.7c0-1-0.8-1.8-1.9-1.8H76.3c-1,0-1.9,0.8-1.9,1.8v34.9H55.5v-17.2c5-3.8,8.2-9.5,8.2-15.9c0-4.1-1.3-8.1-3.9-11.5
	c-0.2-0.3-0.4-0.5-0.6-0.8c0.9-2.1,1.4-4.3,1.4-6.5c0-3.9-1.4-7.6-3.9-10.7c0.7-1.7,1.1-3.5,1.1-5.3c0-0.3,0-0.5,0-0.8
	c-0.1-2.5-0.9-4.8-2.2-6.8V25.8H136.6z M41,46.1c6.9,0,12.6,4.8,13,11c0,0.2,0,0.4,0,0.6c0,1.7-0.4,3.3-1.2,4.8
	c-0.3,0.7-0.2,1.5,0.3,2c2.4,2.6,3.7,5.8,3.7,9.1c0,2.1-0.5,4.1-1.5,6c-0.4,0.7-0.2,1.5,0.3,2c0.4,0.5,0.8,0.9,1.2,1.4
	c2.1,2.8,3.2,6,3.2,9.4c0,8.8-7.5,16.1-17,16.9l0-8.9l6.7-6.5c0.7-0.7,0.7-1.9,0-2.6c-0.7-0.7-1.9-0.7-2.6,0l-4,3.9l0-7.5
	c0-1-0.8-1.8-1.9-1.8c0,0,0,0,0,0c-1,0-1.9,0.8-1.9,1.8l0,7.2l-3.8-3.7c-0.7-0.7-1.9-0.7-2.6,0c-0.7,0.7-0.7,1.9,0,2.6l6.4,6.3
	l0,9.1c-9.6-0.8-17.1-8.1-17.1-16.9c0-3.9,1.5-7.8,4.3-10.8c0.5-0.6,0.6-1.4,0.3-2c-1-1.9-1.5-3.9-1.5-6c0-3.3,1.3-6.6,3.7-9.1
	c0.5-0.6,0.6-1.4,0.3-2C28.4,61,28,59.4,28,57.7C28,51.3,33.8,46.1,41,46.1z M4.2,102.8c0-2.9,1.1-5.7,3.2-8c0.5-0.6,0.6-1.4,0.3-2
	c-0.7-1.4-1.1-2.9-1.1-4.4c0-2.4,1-4.8,2.7-6.7c0.5-0.6,0.6-1.4,0.3-2c-0.6-1.1-0.9-2.3-0.9-3.5c0-4.6,4.2-8.4,9.5-8.4
	c1.4,0,2.8,0.3,4.1,0.8c-0.5,1.7-0.8,3.4-0.8,5.1c0,2.2,0.5,4.4,1.4,6.5c-2.9,3.5-4.5,7.9-4.5,12.3c0,7.5,4.5,14.1,11.1,17.7
	c-2.3,2.7-5.6,4.5-9.3,4.9l0-8c0-1-0.8-1.8-1.9-1.8c0,0,0,0,0,0c-1,0-1.9,0.8-1.9,1.8l0,8C9.5,114.4,4.2,109.1,4.2,102.8z
	 M20.1,118.8c5.1-0.5,9.8-3,12.8-7c0,0,0,0,0,0c2,0.7,4.1,1.1,6.3,1.3l0.1,22H20.2L20.1,118.8z M4,138.8H146v5.5H4V138.8z"/>
<path class="st0" d="M104,82.1h11.9c1,0,1.9-0.8,1.9-1.8V64.2c0-1-0.8-1.8-1.9-1.8H104c-1,0-1.9,0.8-1.9,1.8v16.1
	C102.1,81.3,102.9,82.1,104,82.1z M105.8,66h8.1v12.4h-8.1V66z"/>
<path class="st0" d="M104,55.7h11.9c1,0,1.9-0.8,1.9-1.8V37.8c0-1-0.8-1.8-1.9-1.8H104c-1,0-1.9,0.8-1.9,1.8v16.1
	C102.1,54.9,102.9,55.7,104,55.7z M105.8,39.6h8.1V52h-8.1V39.6z"/>
<path class="st0" d="M76.3,82.1h11.9c1,0,1.9-0.8,1.9-1.8V64.2c0-1-0.8-1.8-1.9-1.8H76.3c-1,0-1.9,0.8-1.9,1.8v16.1
	C74.4,81.3,75.3,82.1,76.3,82.1z M78.2,66h8.1v12.4h-8.1V66z"/>
<path class="st0" d="M76.3,55.7h11.9c1,0,1.9-0.8,1.9-1.8V37.8c0-1-0.8-1.8-1.9-1.8H76.3c-1,0-1.9,0.8-1.9,1.8v16.1
	C74.4,54.9,75.3,55.7,76.3,55.7z M78.2,39.6h8.1V52h-8.1V39.6z"/>
</svg>
