<?xml version="1.0" encoding="utf-8"?>
<!-- Generator: Adobe Illustrator 23.1.1, SVG Export Plug-In . SVG Version: 6.00 Build 0)  -->
<svg version="1.1" id="Layer_1" xmlns="http://www.w3.org/2000/svg" xmlns:xlink="http://www.w3.org/1999/xlink" x="0px" y="0px"
	 viewBox="0 0 293.1 290.5" fill="#02B3CD" style="enable-background:new 0 0 293.1 290.5;" xml:space="preserve">
<g>
	<path d="M148.6,5.4C225.5,6.8,288,71.1,285,149.9c-2.9,75.6-66.4,136.4-144.5,133.4C64.7,280.5,4,216.7,7,138.8
		C10,63.1,73.1,3.8,148.6,5.4z M141.4,77.3c-0.5-0.1-0.8-0.2-1.2-0.2c-18,0-36,0-54-0.1c-1.8,0-2,1-2.4,2.2
		c-5.1,16.4-8.2,33.2-9.3,50.4c-0.2,3.4,0,6.7,0,10.1c22.3,0,44.5,0,66.8,0C141.4,118.9,141.4,98.2,141.4,77.3z M74.4,149.1
		c0,0.9,0,1.6,0,2.3c0.3,19.8,3.7,39,9.4,57.9c0.6,1.8,1.3,2.5,3.2,2.5c17.3-0.1,34.6,0,52,0c0.8,0,1.6,0,2.3,0
		c0-21.2,0-41.9,0-62.7C118.9,149.1,96.7,149.1,74.4,149.1z M217.6,139.9c0-1.1,0-2,0-2.9c-0.4-19.6-3.7-38.7-9.4-57.4
		c-0.6-1.8-1.3-2.5-3.2-2.5c-17.3,0.1-34.6,0-52,0c-0.8,0-1.6,0-2.3,0c0,21.2,0,41.9,0,62.8C173,139.9,195.1,139.9,217.6,139.9z
		 M150.6,211.6c0.7,0,1.2,0.1,1.7,0.1c17.7,0,35.5,0,53.2,0c1.8,0,2.2-0.9,2.6-2.3c4.5-14.3,7.4-29,8.8-43.9
		c0.5-5.4,0.6-10.9,0.9-16.5c-22.6,0-44.9,0-67.2,0C150.6,170,150.6,190.7,150.6,211.6z M75.3,77.1c-1.3,0-2,0-2.8,0
		c-11.8,0-23.7,0-35.5,0c-1.9,0-2.8,0.7-3.7,2.2c-7.9,13.7-13.2,28.3-15.7,43.9c-0.9,5.5-1.3,11-1.9,16.6c16.8,0,33.1,0,49.6,0
		C65.5,118.4,69.1,97.8,75.3,77.1z M16.1,149c0,0.8,0,1.5,0,2.1c1.2,21.1,7,40.8,17.7,58.9c0.5,0.8,1.9,1.6,2.9,1.6
		c12.1,0.1,24.2,0.1,36.2,0.1c0.7,0,1.4-0.1,2.3-0.2c-6.3-20.5-9.7-41.2-10-62.5C48.8,149,32.6,149,16.1,149z M226.7,139.7
		c16.6,0,32.9,0,49.3,0c0-0.6,0-1,0-1.4c-1.1-21.3-6.9-41.3-17.7-59.7c-0.8-1.3-1.7-1.5-3.1-1.5c-12,0-24,0-36,0
		c-0.7,0-1.4,0.1-2.4,0.2C222.9,97.8,226.5,118.4,226.7,139.7z M216.7,211.7c1.3,0,2.2,0,3,0c11.7,0,23.3,0,35,0
		c1.9,0,3-0.6,3.9-2.2c8.5-14.7,13.9-30.5,16.2-47.4c0.6-4.3,0.8-8.7,1.2-13.1c-16.7,0-33,0-49.5,0
		C226.5,170.4,222.9,191.1,216.7,211.7z M141.3,68c0-17.8,0-35.5,0-53.3c-0.7,0.1-1.3,0.1-1.9,0.2c-0.4,0.1-0.8,0.1-1.2,0.2
		c-10.6,2.1-19.2,7.7-26.7,15.2c-10.3,10.3-17.3,22.7-22.9,36c-0.2,0.5-0.3,1-0.4,1.6C106,68,123.6,68,141.3,68z M150.6,14.7
		c0,17.9,0,35.5,0,53.2c17.8,0,35.5,0,53.5,0c-1.3-2.8-2.3-5.4-3.6-8c-6-12.6-13.4-24.2-24.1-33.3C169,20.4,160.7,15.7,150.6,14.7z
		 M88,220.8c3.1,8.2,7,15.6,11.5,22.7c6.6,10.2,14.6,19.2,25.4,25.3c5.1,2.9,10.5,4.9,16.4,5.3c0-17.9,0-35.6,0-53.3
		C123.5,220.8,106,220.8,88,220.8z M150.7,220.8c0,17.9,0,35.6,0,53.4c1.2-0.2,2.2-0.3,3.1-0.5c10.7-2.1,19.3-7.8,26.9-15.4
		c10.1-10.2,17.1-22.4,22.6-35.6c0.2-0.6,0.3-1.2,0.5-1.9C186,220.8,168.5,220.8,150.7,220.8z M251,68c-17-24.1-44.4-42.1-69.3-48.4
		c0.5,0.5,0.8,1,1.2,1.4c13.6,12.8,23.5,28,29.9,45.5c0.6,1.5,1.4,1.8,2.8,1.8c11,0,22,0,33,0C249.3,68.1,250,68,251,68z
		 M250.9,220.9c-0.6-0.1-0.9-0.2-1.2-0.2c-11.5,0-23,0-34.5-0.1c-1.7,0-2.1,0.9-2.5,2.1c-6.4,17.1-16.1,32.1-29.3,44.7
		c-0.6,0.5-1.2,0.9-1.9,1.4C208,262.5,235.1,243.8,250.9,220.9z M110.3,19.3C81.6,27.9,58.7,44,40.7,68.1c1.4,0,2.2,0,2.9,0
		c10.8,0,21.6,0,32.5,0c1.9,0,2.7-0.6,3.4-2.4C83.8,53.7,90,42.7,98.1,32.7C101.9,28.2,106,24,110.3,19.3z M40.8,220.9
		c18,24,40.9,40.1,69.8,48.7c-0.7-0.8-1-1.2-1.4-1.5c-13.7-12.8-23.6-28.1-30.1-45.6c-0.6-1.5-1.4-1.8-2.8-1.8
		c-11.1,0-22.2,0-33.2,0C42.5,220.7,41.9,220.8,40.8,220.9z"/>
</g>
</svg>
