<svg width="334" height="337" viewBox="0 0 334 337" fill="none" xmlns="http://www.w3.org/2000/svg">
<path d="M49.9771 239.827L49.051 331.507C49.0229 334.288 51.2696 336.558 54.0508 336.558H111.5C114.261 336.558 116.5 334.319 116.5 331.558V286.058C116.5 283.296 118.739 281.058 121.5 281.058H141C143.761 281.058 146 283.296 146 286.058V331.558C146 334.319 148.239 336.558 151 336.558H204.5C207.261 336.558 209.5 334.319 209.5 331.558V239.34C209.5 237.89 208.871 236.512 207.776 235.562L133.757 171.382C131.885 169.759 129.108 169.751 127.227 171.363L51.7229 236.081C50.628 237.019 49.9916 238.385 49.9771 239.827Z" fill="#F3A33A"/>
<path d="M34.1954 220.013L108.784 155.884C111.633 153.433 116.132 153.461 118.944 155.91L118.946 155.912L118.99 155.95L192.771 220.038L192.818 220.08L195.084 221.894C196.694 223.182 197.514 224.965 197.514 226.756H197.545V321.698C197.545 325.316 194.265 328.249 190.219 328.249H37.4933C33.4473 328.249 30.167 325.316 30.167 321.698V226.242C30.167 224.215 31.1967 222.403 32.8138 221.201L34.1954 220.013L34.1954 220.013ZM113.824 169.679L44.8197 229.006V315.147H182.893V229.659C182.787 229.577 182.684 229.493 182.583 229.405L113.824 169.679L113.824 169.679Z" fill="#2E556F"/>
<path d="M94.026 257.211H134.659C138.755 257.211 142.077 260.149 142.077 263.773V321.687C142.077 325.311 138.755 328.249 134.659 328.249H94.026C89.9296 328.249 86.6084 325.311 86.6084 321.687V263.773C86.6084 260.149 89.9296 257.211 94.026 257.211ZM127.241 270.335H101.444V315.125H127.241V270.335Z" fill="#2E556F"/>
<path d="M12.3805 222.317C9.44825 224.815 4.8088 224.711 2.01898 222.085C-0.770844 219.46 -0.655106 215.305 2.27719 212.807L109.291 121.808C112.134 119.385 116.583 119.41 119.394 121.808L226.408 212.807C229.34 215.305 229.456 219.46 226.666 222.085C223.876 224.711 219.237 224.815 216.304 222.317L114.342 135.613L12.3806 222.317H12.3805Z" fill="#2E556F"/>
<path d="M333.273 52.4378C333.273 30.7068 313.793 13 289.887 13C265.98 13 246.5 30.7068 246.5 52.4378C246.5 81.2783 279.556 128.228 287.673 139.362C288.558 140.569 290.477 140.569 291.215 139.362C299.626 128.362 333.273 81.949 333.273 52.4378Z" fill="#F3A33A"/>
<path d="M271.584 118.625C266.659 111.645 258.681 99.8246 251.366 86.6303C246.813 78.4197 242.575 69.7807 239.488 61.5205C236.374 53.1888 234.575 45.6188 234.575 39.4378C234.575 21.5464 250.817 6 271.962 6C293.107 6 309.349 21.5464 309.349 39.4378C309.349 45.7827 307.515 53.4408 304.349 61.7972C301.208 70.0878 296.895 78.7096 292.256 86.8792C284.785 100.037 276.628 111.751 271.584 118.625Z" stroke="#2E556F" stroke-width="12" stroke-linejoin="round"/>
<circle cx="271.962" cy="46.8575" r="15.404" stroke="#2E556F" stroke-width="12"/>
</svg>
